<?xml version="1.0" encoding="UTF-8"?>
<!DOCTYPE svg PUBLIC "-//W3C//DTD SVG 1.1//EN" "http://www.w3.org/Graphics/SVG/1.1/DTD/svg11.dtd">
<!-- Creator: CorelDRAW 2021 (64-Bit Versión de evaluación) -->
<svg xmlns="http://www.w3.org/2000/svg" xml:space="preserve" width="137px" height="103px" version="1.1" style="shape-rendering:geometricPrecision; text-rendering:geometricPrecision; image-rendering:optimizeQuality; fill-rule:evenodd; clip-rule:evenodd"
viewBox="0 0 137 102.75"
 xmlns:xlink="http://www.w3.org/1999/xlink"
 xmlns:xodm="http://www.corel.com/coreldraw/odm/2003">
 <defs>
  <style type="text/css">
   <![CDATA[
    .fil6 {fill:#2546A4}
    .fil1 {fill:#262D9D}
    .fil4 {fill:#3A5F9B}
    .fil0 {fill:#4192C9}
    .fil3 {fill:#4585B8}
    .fil9 {fill:#6196B0}
    .fil5 {fill:#71B4DE}
    .fil11 {fill:#9CBEC4}
    .fil8 {fill:#A3DCF5}
    .fil10 {fill:#F4D7AD}
    .fil7 {fill:#F7B67A}
    .fil2 {fill:#FB9326}
   ]]>
  </style>
   <clipPath id="id0">
    <rect x="31.507" y="6.087" width="35.588" height="13.881"/>
   </clipPath>
 </defs>
 <g id="Capa_x0020_1">
  <metadata id="CorelCorpID_0Corel-Layer"/>
  <g style="clip-path:url(#id0)">
   <image id="logo-web_Mesa-de-trabajo-1.png" x="31.507" y="6.087" width="35.588" height="13.88" xlink:href="logo_Images\logo_ImgID1.jpg"/>
  </g>
  <g id="_2696666852736">
   <path class="fil0" d="M50.754 7.742c0,0.23 -0.041,0.279 -0.041,0.524l0 3.833c0,0.685 0.222,0.85 0.716,1.383l0.149 0.174c0.005,0.006 0.014,0.015 0.019,0.021 0.162,0.18 0.36,0.319 0.65,0.319 0.854,0 5.613,0.062 6.052,-0.04l0 -1.372 -5.568 0c-0.228,0 -0.404,-0.122 -0.404,-0.283l0 -2.905c0,-0.147 0.197,-0.282 0.364,-0.282l3.429 0c0.405,0 0.323,0.429 0.323,0.807 0,0.339 -0.303,0.325 -0.645,0.323l-2.946 -0.001c0.037,0.14 0.033,0.093 0.13,0.193 0.083,0.085 0.079,0.092 0.146,0.177 0.087,0.108 0.202,0.225 0.306,0.34l0.059 0.062c0.098,0.106 0.483,0.6 0.61,0.6l4.196 0 0 -1.654c0,-0.221 -0.174,-0.416 -0.31,-0.537 -0.526,-0.469 -1.029,-1.045 -1.638,-1.549 -0.123,-0.102 -0.223,-0.174 -0.432,-0.174 -1.201,0 -4.163,-0.064 -5.165,0.041z"/>
   <path class="fil1" d="M32.92 13.592c0,0.308 0.067,0.64 0.109,0.899 0.226,1.399 1.012,2.154 2.129,2.754 0.683,0.367 1.503,0.545 2.282,0.586 0.206,0.01 0.292,-0.038 0.482,-0.043 0.851,-0.021 1.763,-0.427 2.386,-1.003l0.501 -0.508c0.205,-0.238 0.384,-0.53 0.527,-0.804 0.186,-0.356 0.57,-1.397 0.13,-1.833 -0.592,-0.585 -1.445,-0.085 -1.445,0.437 0,0.56 0.182,0.968 0.888,0.968 0.109,0 0.111,-0.019 0.201,-0.04 -0.071,0.197 -0.733,0.607 -0.898,0.675 -1.233,0.511 -2.487,0.298 -3.603,-0.37l-0.704 -0.507c-0.237,-0.2 -0.429,-0.436 -0.605,-0.686 -0.322,-0.456 -0.563,-0.915 -0.705,-1.474 -0.234,-0.918 -0.158,-1.519 0.016,-2.406 0.085,-0.433 -0.073,-0.384 -0.273,-0.109l-0.468 0.622c-0.039,0.059 -0.064,0.094 -0.099,0.144 -0.192,0.279 -0.516,0.97 -0.621,1.355 -0.021,0.074 -0.038,0.11 -0.06,0.182 -0.041,0.132 -0.045,0.223 -0.073,0.371 -0.044,0.231 -0.097,0.544 -0.097,0.79z"/>
   <path class="fil2" d="M38.447 10.849c0,0.339 -0.014,0.558 0.255,0.794 0.554,0.488 1.4,0.083 1.4,-0.593 0,-0.398 -0.092,-0.421 -0.242,-0.645 0.37,0.008 1.164,0.541 1.434,0.865l0.147 0.176c0.013,0.016 0.075,0.097 0.087,0.115 0.192,0.283 0.347,0.533 0.461,0.87 0.506,1.502 0.343,3.264 -0.742,4.485l-0.059 0.062c-0.221,0.237 -0.169,0.216 -0.444,0.444l-0.464 0.343c-0.428,0.312 -0.942,0.496 -1.456,0.643 -0.21,0.06 -0.229,0.027 -0.336,0.188 0.419,0.28 2.142,0.285 2.641,0.179l0.822 -0.227c0.071,-0.029 0.071,-0.035 0.164,-0.078 0.341,-0.157 0.707,-0.333 0.998,-0.575 0.073,-0.061 0.081,-0.066 0.159,-0.124l0.324 -0.281c0.341,-0.365 0.459,-0.514 0.712,-0.983 0.05,-0.093 0.048,-0.079 0.087,-0.194 0.285,-0.828 0.34,-1.513 0.202,-2.374 -0.085,-0.526 -0.139,-0.767 -0.345,-1.269 -0.051,-0.124 -0.1,-0.222 -0.173,-0.352 -0.072,-0.129 -0.119,-0.253 -0.196,-0.368 -0.074,-0.111 -0.146,-0.195 -0.225,-0.3 -0.202,-0.271 -0.286,-0.334 -0.519,-0.57l-0.428 -0.339c-1.146,-0.784 -2.249,-0.905 -3.592,-0.553 -0.194,0.051 -0.307,0.091 -0.427,0.219 -0.082,0.087 -0.245,0.285 -0.245,0.442z"/>
   <path class="fil3" d="M58.743 9.598c0.021,-0.248 0.04,-0.117 0.04,-0.525l3.995 0c0.32,0 0.242,0.653 0.242,0.928 0,0.324 -0.647,0.242 -0.847,0.242l-3.269 0 0.347 0.38c0.042,0.042 0.036,0.034 0.081,0.08l2.058 2.058c0.006,0.006 0.015,0.014 0.021,0.02 0.006,0.005 0.015,0.013 0.021,0.019l0.28 0.285c0.006,0.006 0.014,0.014 0.02,0.02 0.006,0.006 0.014,0.014 0.02,0.02l0.525 0.524c0.006,0.006 0.015,0.014 0.021,0.019 0.117,0.108 0.185,0.23 0.346,0.3 0.341,0.148 1.903,0.068 2.434,0.068 -0.053,-0.199 -1.243,-1.295 -1.478,-1.548l-0.124 -0.118c-0.069,-0.063 -0.082,-0.08 -0.137,-0.146l-0.11 -0.132c-0.052,-0.059 -0.081,-0.087 -0.138,-0.144 -0.177,-0.175 -0.555,-0.424 0.048,-0.416 0.337,0.005 0.694,0.036 0.938,-0.07 0.846,-0.369 0.759,-1.133 0.759,-1.945 0,-0.105 -0.106,-0.166 -0.176,-0.228l-1.589 -1.437c-0.173,-0.175 -0.324,-0.194 -0.655,-0.192 -0.658,0.004 -2.144,-0.045 -2.601,0.024 -0.328,0.05 -2.015,0.02 -2.565,0.017 -0.745,-0.004 -0.541,0.097 -0.038,0.563l0.574 0.555c0.097,0.081 0.129,0.088 0.222,0.182l0.154 0.169c0.022,0.023 0.04,0.038 0.063,0.058 0.297,0.27 0.273,0.364 0.518,0.37z"/>
   <path class="fil0" d="M37.968 14.036c-0.004,-0.128 0.023,0.068 -0.152,0.256 -0.613,0.661 -1.574,-0.099 -1.14,-0.861 0.219,-0.385 0.638,-0.255 0.732,-0.363 -0.139,-0.005 -0.266,-0.1 -0.618,0.078 -0.173,0.088 -0.312,0.24 -0.36,0.446 -0.117,-0.085 -0.077,-0.019 -0.125,-0.44 -0.029,-0.261 -0.05,-0.266 -0.003,-0.534 0.139,-0.791 0.419,-1.424 0.951,-1.996l0.156 -0.166c0.051,-0.045 0.037,-0.031 0.088,-0.073l0.088 -0.074c1.584,-1.361 3.554,-1.566 5.359,-0.487 0.582,0.349 0.751,0.625 0.985,0.797 0.207,0.153 0.232,-0.001 0.154,-0.196 -0.388,-0.974 -0.646,-1.508 -1.393,-2.324 -0.032,-0.034 -0.04,-0.047 -0.078,-0.084 -0.239,-0.227 -0.572,-0.463 -0.858,-0.634 -0.249,-0.15 -0.548,-0.304 -0.819,-0.392l-0.469 -0.136c-0.619,-0.178 -1.478,-0.079 -2.077,0.145 -0.474,0.177 -1.118,0.575 -1.478,0.902l-0.158 0.125c-0.238,0.195 -0.791,0.896 -0.949,1.189l-0.362 0.808c-0.149,0.437 -0.154,0.562 -0.212,0.999 -0.11,0.835 0.165,1.704 0.514,2.41 0.269,0.546 1.01,1.456 1.697,1.254 0.234,-0.068 0.608,-0.365 0.527,-0.649z"/>
   <path class="fil4" d="M45.428 7.701l0 3.753c0,0.365 0.941,1.593 1.192,1.955 0.019,0.026 0.034,0.05 0.048,0.073l0.161 0.242c0.372,0.453 1.547,0.272 2.351,0.272 0.583,0 1.547,0.119 2.058,0 -0.005,-0.221 -0.1,-0.243 -0.232,-0.373l-0.469 -0.499c-0.062,-0.067 -0.096,-0.109 -0.152,-0.172 -0.592,-0.664 -2.358,-0.083 -2.846,-0.381 -0.256,-0.156 -0.175,-0.637 -0.175,-1.077l0 -3.873c-0.378,-0.088 -1.368,-0.041 -1.815,-0.041 -0.093,0 -0.121,0.028 -0.121,0.121z"/>
   <path class="fil5" d="M35.99 13.197c-0.048,-1.414 0.552,-2.48 1.512,-3.255 1.405,-1.134 3.143,-1.478 4.911,-0.766 0.476,0.192 0.895,0.518 1.036,0.576 -0.039,-0.108 -0.13,-0.244 -0.184,-0.333 -0.068,-0.114 -0.125,-0.208 -0.197,-0.33 -0.912,-1.553 -3.222,-2.643 -5.075,-1.557 -0.926,0.543 -1.643,1.215 -2.105,2.209 -0.369,0.794 -0.496,1.79 -0.212,2.671 0.101,0.316 0.127,0.483 0.296,0.758 0.004,0.006 0.011,0.018 0.018,0.027z"/>
   <path class="fil6" d="M40.678 15.836c-0.315,0.097 -1.296,0.808 -2.486,0.558 -1.015,-0.213 -1.339,-0.275 -2.241,-0.951 -0.097,-0.073 -0.097,-0.084 -0.187,-0.176 -0.215,-0.22 -0.179,-0.08 -0.598,-0.613 -0.854,-1.085 -1.122,-2.279 -1.098,-3.707 -0.241,0.175 -0.596,1.045 -0.708,1.388 -0.511,1.569 -0.077,3.525 1.455,4.407 1.12,0.646 1.95,0.891 3.342,0.709 0.849,-0.111 1.812,-0.708 2.316,-1.35 0.076,-0.098 0.136,-0.234 0.205,-0.265z"/>
   <path class="fil7" d="M43.019 13.754c0,1.732 -0.669,3.039 -1.85,4.093 -0.147,0.13 -0.325,0.253 -0.462,0.382 1.717,-0.147 3.268,-1.888 3.268,-3.668 0,-0.968 -0.236,-1.714 -0.67,-2.397 -0.314,-0.494 -0.886,-1.134 -1.494,-1.342 0.632,0.542 1.208,1.741 1.208,2.932z"/>
   <path class="fil8" d="M36.066 10.848c0.045,-0.041 0.436,-0.625 0.695,-0.878 0.954,-0.935 1.86,-1.404 3.202,-1.595 0.358,-0.051 0.609,-0.067 0.952,-0.032 0.311,0.031 0.711,0.118 0.964,0.131 -0.287,-0.374 -1.15,-0.716 -1.625,-0.849 -0.289,-0.08 -0.854,-0.062 -1.157,-0.009 -0.774,0.135 -1.774,0.882 -2.261,1.501 -0.256,0.325 -0.77,1.187 -0.77,1.731z"/>
   <path class="fil2" d="M65.683 14.924c-0.04,-0.15 -0.041,-0.052 -0.081,-0.202l-19.973 0c0.026,0.307 0.352,0.202 1.05,0.202l19.004 0z"/>
   <path class="fil6" d="M62.576 15.771l0 2.179c0,0.203 0.726,0.529 0.726,-0.242l0 -1.735c0,-0.551 -0.511,-0.509 -0.67,-0.308 -0.072,0.09 -0.056,-0.053 -0.056,0.106z"/>
   <path class="fil2" d="M46.921 14.319c-0.012,-0.143 -0.387,-0.752 -0.496,-0.917l-1.155 -1.669c-0.098,-0.156 0.002,-0.07 -0.165,-0.158 0,1.091 0.174,1.859 0.968,2.421 0.288,0.204 0.459,0.232 0.848,0.323z"/>
   <path class="fil6" d="M47.97 18.152c0.368,0 0.282,0.118 0.282,-1.049l0.162 0c0,1.167 -0.086,1.049 0.282,1.049l0 -1.009c0,-0.192 -0.057,0.018 -0.057,-0.161 0,-0.18 0.057,0.03 0.057,-0.162l0 -1.008c0,-0.294 -0.559,-0.242 -0.726,-0.242l0 2.582z"/>
   <path class="fil9" d="M37.968 14.036c0.001,0 0.161,0.053 0.054,-0.338 -0.087,-0.317 -0.267,-0.563 -0.614,-0.63 -0.094,0.108 -0.513,-0.022 -0.732,0.363 -0.434,0.762 0.527,1.522 1.14,0.861 0.175,-0.188 0.148,-0.384 0.152,-0.256z"/>
   <path class="fil6" d="M56.362 18.152c0.381,0 0.283,0.022 0.283,-0.969 0.038,0.06 -0.005,-0.043 0.039,0.083l0.163 0.886 0.242 0 0 -2.582 -0.242 0c-0.066,0.282 -0.041,0.703 -0.041,1.049l-0.04 0c0,-0.411 -0.068,-0.514 -0.115,-0.854 -0.029,-0.207 0.022,-0.195 -0.289,-0.195l0 2.582z"/>
   <path class="fil6" d="M64.795 18.152c0.352,0 0.242,-0.124 0.242,-1.049 0.055,0.079 -0.002,-0.078 0.056,0.105l0.068 0.457c0.107,0.473 0.056,0.487 0.24,0.487 0.093,0 0.121,-0.028 0.121,-0.121l0 -2.34c0,-0.125 -0.056,-0.121 -0.162,-0.121 -0.202,0 -0.121,0.716 -0.121,1.089l-0.05 -0.112c-0.019,-0.065 -0.015,-0.048 -0.025,-0.135 -0.019,-0.154 -0.017,-0.198 -0.042,-0.322 -0.023,-0.119 -0.031,-0.174 -0.058,-0.305 -0.045,-0.221 -0.011,-0.215 -0.269,-0.215l0 2.582z"/>
   <path class="fil6" d="M45.751 18.152c0.363,0 0.282,0.11 0.282,-0.969 0.565,0 0.444,-0.072 0.444,-1.371 0,-0.298 -0.534,-0.242 -0.726,-0.242l0 2.582z"/>
   <path class="fil6" d="M58.582 15.892l0 2.018c0,0.331 0.726,0.392 0.726,0.04l0 -0.928 -0.242 0c-0.062,0.264 -0.041,0.603 -0.041,0.928 -0.114,-0.009 -0.161,0.001 -0.161,-0.121l0 -1.937c0,-0.122 0.047,-0.111 0.161,-0.121 0,0.651 -0.126,0.969 0.283,0.969 0,-0.812 0.131,-1.211 -0.363,-1.211 -0.2,0 -0.363,0.164 -0.363,0.363z"/>
   <path class="fil2" d="M64.876 9.315c0,-0.327 0.029,-0.608 -0.069,-0.859 -0.099,-0.255 -0.178,-0.39 -0.358,-0.57 -0.394,-0.396 -0.815,-0.306 -1.55,-0.306l1.899 1.693c0.032,0.021 0.013,0.019 0.078,0.042z"/>
   <path class="fil6" d="M52.489 18.152c0.218,0 0.208,0.012 0.243,-0.523 0.042,-0.636 0.16,-1.527 0.16,-2.059 -0.408,0 -0.257,0.175 -0.282,0.645 -0.014,0.258 -0.04,0.487 -0.04,0.807l-0.041 0c0,-0.159 -0.031,-0.532 -0.057,-0.709 -0.04,-0.267 -0.008,-0.503 -0.064,-0.743l-0.242 0c0,0.52 0.084,0.889 0.119,1.333l0.076 1.013c0.014,0.138 -0.019,0.236 0.128,0.236z"/>
   <path class="fil6" d="M54.345 18.152l0.484 0c0.154,0 0.015,0.012 0.121,-0.04 -0.017,-0.204 -0.11,-0.202 -0.323,-0.202l0 -0.888c0.217,-0.005 0.266,-0.036 0.283,-0.242 -0.104,-0.058 -0.108,-0.04 -0.283,-0.04l0 -0.928c0.238,0 0.318,-0.002 0.323,-0.242l-0.605 0 0 2.582z"/>
   <path class="fil10" d="M39.252 10.391c-0.622,0.289 -0.267,1.231 0.431,0.973 0.603,-0.222 0.238,-1.285 -0.431,-0.973z"/>
   <path class="fil6" d="M50.189 18.152l0.484 0c0.154,0 0.015,0.012 0.121,-0.04 -0.019,-0.227 -0.152,-0.202 -0.363,-0.202l0 -0.888c0.238,0 0.304,-0.018 0.323,-0.242 -0.108,-0.061 -0.139,-0.04 -0.323,-0.04l0 -0.928c0.338,0 0.351,-0.054 0.363,-0.202 -0.138,-0.078 -0.437,-0.04 -0.605,-0.04l0 2.582z"/>
   <path class="fil3" d="M40.908 13.588c-0.25,0.096 -0.446,0.237 -0.357,0.642 0.052,0.242 0.358,0.43 0.648,0.342 0.506,-0.154 0.48,-0.9 -0.064,-1.009 -0.051,-0.011 -0.046,-0.013 -0.103,-0.009 -0.094,0.006 -0.081,0.018 -0.124,0.034z"/>
   <path class="fil6" d="M60.801 15.771l0 2.26c0,0.172 0.282,0.172 0.282,0l0 -2.461 -0.242 0c-0.021,0.09 -0.04,0.092 -0.04,0.201z"/>
   <path class="fil11" d="M37.276 13.302c-0.569,0.207 -0.209,1.089 0.336,0.831 0.565,-0.267 0.211,-1.03 -0.336,-0.831z"/>
   <path class="fil6" d="M63.181 15.126l-0.242 0c-0.024,0.104 -0.148,0.386 0.014,0.34 0.095,-0.027 0.093,-0.077 0.143,-0.143 0.101,-0.135 0.07,-0.013 0.085,-0.197z"/>
  </g>
 </g>
</svg>
